<?xml version="1.0" encoding="UTF-8"?>
<!DOCTYPE svg PUBLIC "-//W3C//DTD SVG 1.1//EN" "http://www.w3.org/Graphics/SVG/1.1/DTD/svg11.dtd">
<svg xmlns="http://www.w3.org/2000/svg" version="1.1" width="300px" height="186px" style="shape-rendering:geometricPrecision; text-rendering:geometricPrecision; image-rendering:optimizeQuality; fill-rule:evenodd; clip-rule:evenodd" xmlns:xlink="http://www.w3.org/1999/xlink">
<g><path style="opacity:1" fill="#191919" d="M -0.5,-0.5 C 99.5,-0.5 199.5,-0.5 299.5,-0.5C 299.5,61.5 299.5,123.5 299.5,185.5C 199.5,185.5 99.5,185.5 -0.5,185.5C -0.5,123.5 -0.5,61.5 -0.5,-0.5 Z"/></g>
<g><path style="opacity:1" fill="#f2c436" d="M 138.5,6.5 C 162.463,3.81084 179.796,13.1442 190.5,34.5C 180.03,34.7567 170.363,37.59 161.5,43C 159.291,44.8734 157.458,47.04 156,49.5C 155.5,62.1623 155.333,74.8289 155.5,87.5C 131.201,90.7778 114.701,81.1112 106,58.5C 101.754,40.2898 106.92,25.4565 121.5,14C 126.872,10.6071 132.538,8.10712 138.5,6.5 Z"/></g>
<g><path style="opacity:1" fill="#1a1919" d="M 140.5,8.5 C 153.734,7.97309 165.734,11.4731 176.5,19C 172,22.8333 167.5,26.6667 163,30.5C 158.922,34.9839 155.589,39.9839 153,45.5C 151.597,56.1023 151.097,66.769 151.5,77.5C 141.676,77.3476 135.176,72.6809 132,63.5C 130,67.5 128,71.5 126,75.5C 120.462,68.5143 117.962,60.5143 118.5,51.5C 116.807,53.0267 114.973,54.3601 113,55.5C 113.667,49.5 114.333,43.5 115,37.5C 113.833,38.6667 112.667,39.8333 111.5,41C 110.668,41.6877 110.002,41.521 109.5,40.5C 113.848,23.8209 124.182,13.1542 140.5,8.5 Z"/></g>
<g><path style="opacity:1" fill="#f1c436" d="M 142.5,19.5 C 148.411,18.35 154.411,18.6834 160.5,20.5C 159.32,23.0978 157.32,24.7645 154.5,25.5C 150.447,23.4734 146.447,21.4734 142.5,19.5 Z"/></g>
<g><path style="opacity:1" fill="#f3c536" d="M 106.5,102.5 C 123.765,102.257 129.598,110.257 124,126.5C 115.038,134.739 106.372,134.405 98,125.5C 94.0598,115.14 96.8931,107.473 106.5,102.5 Z"/></g>
<g><path style="opacity:1" fill="#f3c636" d="M 140.5,102.5 C 145.37,102.032 150.036,102.698 154.5,104.5C 156.841,110.869 155.508,112.369 150.5,109C 139.611,107.549 135.445,112.049 138,122.5C 143.294,127.473 148.961,127.806 155,123.5C 156.236,127.463 155.07,130.297 151.5,132C 136.496,133.995 129.663,127.495 131,112.5C 133.022,107.98 136.189,104.647 140.5,102.5 Z"/></g>
<g><path style="opacity:1" fill="#ebbf35" d="M 65.5,102.5 C 67.5273,102.338 69.5273,102.505 71.5,103C 76.3333,109.167 81.1667,115.333 86,121.5C 86.4995,115.175 86.6662,108.842 86.5,102.5C 88.5,102.5 90.5,102.5 92.5,102.5C 92.6665,112.172 92.4998,121.839 92,131.5C 89.8615,132.769 87.6948,132.769 85.5,131.5C 80.7567,125.679 76.2567,119.679 72,113.5C 71.5005,119.825 71.3338,126.158 71.5,132.5C 69.5,132.5 67.5,132.5 65.5,132.5C 65.5,122.5 65.5,112.5 65.5,102.5 Z"/></g>
<g><path style="opacity:1" fill="#ecc035" d="M 160.5,102.5 C 162.5,102.5 164.5,102.5 166.5,102.5C 166.5,110.5 166.5,118.5 166.5,126.5C 170.167,126.5 173.833,126.5 177.5,126.5C 177.5,128.5 177.5,130.5 177.5,132.5C 171.833,132.5 166.167,132.5 160.5,132.5C 160.5,122.5 160.5,112.5 160.5,102.5 Z"/></g>
<g><path style="opacity:1" fill="#edc136" d="M 206.5,130.5 C 204.735,131.461 202.735,131.795 200.5,131.5C 199.661,130.359 198.994,129.026 198.5,127.5C 194.833,126.167 191.167,126.167 187.5,127.5C 186.742,131.99 184.075,133.657 179.5,132.5C 182.636,122.426 185.969,112.426 189.5,102.5C 191.833,102.5 194.167,102.5 196.5,102.5C 199.633,111.898 202.966,121.231 206.5,130.5 Z"/></g>
<g><path style="opacity:1" fill="#e6bb35" d="M 209.5,102.5 C 216.167,102.5 222.833,102.5 229.5,102.5C 229.5,104.5 229.5,106.5 229.5,108.5C 224.833,108.5 220.167,108.5 215.5,108.5C 215.5,110.5 215.5,112.5 215.5,114.5C 218.833,114.5 222.167,114.5 225.5,114.5C 225.5,116.5 225.5,118.5 225.5,120.5C 222.167,120.5 218.833,120.5 215.5,120.5C 215.5,124.5 215.5,128.5 215.5,132.5C 213.533,132.739 211.699,132.406 210,131.5C 209.5,121.839 209.334,112.172 209.5,102.5 Z"/></g>
<g><path style="opacity:1" fill="#191919" d="M 108.5,108.5 C 117.399,108.225 121.065,112.392 119.5,121C 117.229,125.634 113.562,127.301 108.5,126C 100.555,120.17 100.555,114.336 108.5,108.5 Z"/></g>
<g><path style="opacity:1" fill="#211e1a" d="M 195.5,118.5 C 194.081,119.451 192.415,119.784 190.5,119.5C 191.878,108.453 193.545,108.119 195.5,118.5 Z"/></g>
<g><path style="opacity:1" fill="#695823" d="M 195.5,118.5 C 196.043,118.56 196.376,118.893 196.5,119.5C 195.333,119.833 194.167,120.167 193,120.5C 191.11,120.63 190.277,120.296 190.5,119.5C 192.415,119.784 194.081,119.451 195.5,118.5 Z"/></g>
<g><path style="opacity:1" fill="#987d2a" d="M 206.5,130.5 C 207.043,130.56 207.376,130.893 207.5,131.5C 205.027,132.797 202.693,132.797 200.5,131.5C 202.735,131.795 204.735,131.461 206.5,130.5 Z"/></g>
<g><path style="opacity:1" fill="#f0c336" d="M 155.5,142.5 C 160.413,142.003 164.913,143.003 169,145.5C 169.808,147.579 169.641,149.579 168.5,151.5C 162.588,147.242 157.088,147.575 152,152.5C 148.767,163.606 152.934,168.106 164.5,166C 169.508,162.631 170.841,164.131 168.5,170.5C 154.948,175.892 146.615,171.559 143.5,157.5C 144.596,150.081 148.596,145.081 155.5,142.5 Z"/></g>
<g><path style="opacity:1" fill="#edc136" d="M 93.5,143.5 C 101.167,143.5 108.833,143.5 116.5,143.5C 116.5,145.5 116.5,147.5 116.5,149.5C 113.833,149.5 111.167,149.5 108.5,149.5C 108.5,157.167 108.5,164.833 108.5,172.5C 106.5,172.5 104.5,172.5 102.5,172.5C 102.5,164.833 102.5,157.167 102.5,149.5C 99.5,149.5 96.5,149.5 93.5,149.5C 93.5,147.5 93.5,145.5 93.5,143.5 Z"/></g>
<g><path style="opacity:1" fill="#efc236" d="M 120.5,143.5 C 127.167,143.5 133.833,143.5 140.5,143.5C 140.5,145.5 140.5,147.5 140.5,149.5C 135.833,149.5 131.167,149.5 126.5,149.5C 126.5,151.167 126.5,152.833 126.5,154.5C 129.833,154.5 133.167,154.5 136.5,154.5C 136.5,156.5 136.5,158.5 136.5,160.5C 133.167,160.5 129.833,160.5 126.5,160.5C 126.5,162.5 126.5,164.5 126.5,166.5C 131.167,166.5 135.833,166.5 140.5,166.5C 140.5,168.5 140.5,170.5 140.5,172.5C 133.833,172.5 127.167,172.5 120.5,172.5C 120.5,162.833 120.5,153.167 120.5,143.5 Z"/></g>
<g><path style="opacity:1" fill="#f0c336" d="M 179.5,153.5 C 183.97,154.486 188.637,154.819 193.5,154.5C 193.5,150.833 193.5,147.167 193.5,143.5C 195.167,143.5 196.833,143.5 198.5,143.5C 198.5,153.167 198.5,162.833 198.5,172.5C 196.833,172.5 195.167,172.5 193.5,172.5C 193.5,168.167 193.5,163.833 193.5,159.5C 188.637,159.181 183.97,159.514 179.5,160.5C 179.5,164.5 179.5,168.5 179.5,172.5C 177.5,172.5 175.5,172.5 173.5,172.5C 173.5,162.833 173.5,153.167 173.5,143.5C 175.5,143.5 177.5,143.5 179.5,143.5C 179.5,146.833 179.5,150.167 179.5,153.5 Z"/></g>
<g><path style="opacity:1" fill="#514621" d="M 193.5,143.5 C 193.5,147.167 193.5,150.833 193.5,154.5C 188.637,154.819 183.97,154.486 179.5,153.5C 183.833,153.5 188.167,153.5 192.5,153.5C 192.187,149.958 192.521,146.625 193.5,143.5 Z"/></g>
<g><path style="opacity:1" fill="#7f6a27" d="M 179.5,160.5 C 183.97,159.514 188.637,159.181 193.5,159.5C 193.5,163.833 193.5,168.167 193.5,172.5C 192.517,168.702 192.183,164.702 192.5,160.5C 188.167,160.5 183.833,160.5 179.5,160.5 Z"/></g>
</svg>
